# xmcd
#
# Track frame offsets:
#	150
#	15908
#	34720
#	51555
#	68496
#	85614
#	100730
#	116686
#	131796
#	144385
#	162127
#	178375
#
# Disc length: 2627 seconds
#
# Revision: 1
# Processed by: cddbd v1.5.1PL0 Copyright (c) Steve Scherf et al.
# Submitted via: audiograbber 1.83.01
#
DISCID=9a0a410c
DTITLE=Various Artist - Crossing The Tracks
DYEAR=2004
DGENRE=Country
TTITLE0=Lee Kernaghan - Down Under
TTITLE1=Travis Sinclair and Camille Te Nahu - Truly Madly Deepy
TTITLE2=Sara Storer - One Perfect Day
TTITLE3=Sovereign - Eagle Rock
TTITLE4=Beccy Cole - Pleasure And Pain
TTITLE5=James Blundell - Unguarded Moment
TTITLE6=Felicity Urquhart - Throw Your Arms Around Me
TTITLE7=Feral Swing Katz - Bad Habits
TTITLE8=Travis Sinclair - Shakin All Over
TTITLE9=Tania Kernaghan - Tenterfield Saddler
TTITLE10=Jack Nickolai - Miss You Love
TTITLE11=Lee Kernaghan and James Blundell - Great Southern Land
EXTD=
EXTT0=
EXTT1=
EXTT2=
EXTT3=
EXTT4=
EXTT5=
EXTT6=
EXTT7=
EXTT8=
EXTT9=
EXTT10=
EXTT11=
PLAYORDER=
